# xmcd
#
# Track frame offsets: 
#        150
#        17851
#        52938
#
# Disc length: 1044 seconds
#
# Revision: 2
# Processed by: cddbd v1.5.2PL0 Copyright (c) Steve Scherf et al.
# Submitted via: ExactAudioCopy v0.99pb5
#
DISCID=1b041203
DTITLE=Oasis - Let There Be Love
DYEAR=2005
DGENRE=Rock
TTITLE0=Let There Be Love
TTITLE1=Rock 'N' Roll Star (Live At City Of Manchester Stadium '05)
TTITLE2=Don't Look Back In Anger (Live At City Of Manchester Stadium '
TTITLE2=05)
EXTD=YEAR: 2005.12.21
EXTT0=
EXTT1=
EXTT2=
PLAYORDER=
